<?xml version="1.0" encoding="UTF-8"?>
<svg id="Layer_1" data-name="Layer 1" xmlns="http://www.w3.org/2000/svg" viewBox="0 0 96.65 91.79">
  <defs>
    <style>
      .cls-1 {
        fill: none;
        stroke: #000;
        stroke-miterlimit: 10;
      }

      .cls-2 {
        font-family: HarlowDuoSerifPlain-Regular, 'Harlow Duo Serif Plain';
        font-size: 32.39px;
      }
    </style>
  </defs>
  <text class="cls-2" transform="translate(19.58 56.68) scale(1.06 1)"><tspan x="0" y="0">NLR</tspan></text>
  <path class="cls-1" d="M76.47,81.73l10.96-11.39c8.06-8.37,10.79-20.54,7.09-31.56l-4.49-13.35c-3.53-10.51-12.37-18.35-23.23-20.6l-17.84-3.7c-10.49-2.17-21.36,1.19-28.79,8.91l-10.96,11.39C1.16,29.82-1.58,41.98,2.13,53l4.49,13.35c3.53,10.51,12.37,18.35,23.23,20.6l17.84,3.7c10.49,2.17,21.36-1.19,28.79-8.91Z"/>
  <path class="cls-1" d="M44.64,80.43l-25.79-14.46c-2.65-1.49-4.31-4.28-4.34-7.32l-.31-27.62c-.04-3.14,1.66-6.05,4.42-7.56l25.15-13.76c2.57-1.41,5.69-1.39,8.24.04l25.79,14.46c2.65,1.49,4.31,4.28,4.34,7.32l.31,27.62c.04,3.14-1.66,6.05-4.42,7.56l-25.15,13.76c-2.57,1.41-5.69,1.39-8.24-.04Z"/>
</svg>